<?xml version="1.0" encoding="utf-8"?>
<!-- Generator: Adobe Illustrator 21.0.2, SVG Export Plug-In . SVG Version: 6.00 Build 0)  -->
<svg version="1.1" id="レイヤー_1" xmlns="http://www.w3.org/2000/svg" xmlns:xlink="http://www.w3.org/1999/xlink" x="0px"
	 y="0px" viewBox="0 0 144 144" style="enable-background:new 0 0 144 144;" xml:space="preserve">
<style type="text/css">
	.st0{fill:#B1A68C;}
	.st1{fill:#FFFFFF;}
</style>
<circle class="st0" cx="72.1954117" cy="72.8416595" r="67.0999985"/>
<polygon class="st1" points="99.5788345,42.916214 87.4727402,42.916214 72.1914062,88.4756165 57.0493202,42.916214 
	44.9351997,42.916214 37.3896408,86.4853668 24.1045227,86.4853668 24.1045227,92.8304977 36.2950554,92.8304977 
	35.681469,96.3554382 24.1045227,96.3554382 24.1045227,102.6998825 34.5841331,102.6998825 33.6262589,108.2357864 
	45.7497787,108.2357864 46.7117043,102.6998825 55.2996445,102.6998825 55.2996445,96.3554382 47.8143806,96.3554382 
	48.4279785,92.8304977 55.2996445,92.8304977 55.2996445,86.4853668 49.5305824,86.4853668 52.9188805,66.9837341 
	66.6728592,108.2357864 77.6294937,108.2357864 91.50811,66.9837341 98.5124435,108.2357864 110.5354767,108.2357864 "/>
</svg>
